<svg width="92" height="95" fill="none" xmlns="http://www.w3.org/2000/svg">
  <path d="M0 91a1 1 0 011-1h18a1 1 0 011 1v3a1 1 0 01-1 1H1a1 1 0 01-1-1v-3zm25 0a1 1 0 011-1h18a1 1 0 011 1v3a1 1 0 01-1 1H26a1 1 0 01-1-1v-3zm22 0a1 1 0 011-1h18a1 1 0 011 1v3a1 1 0 01-1 1H48a1 1 0 01-1-1v-3zm25 0a1 1 0 011-1h18a1 1 0 011 1v3a1 1 0 01-1 1H73a1 1 0 01-1-1v-3zm0-45a1 1 0 011-1h18a1 1 0 011 1v3a1 1 0 01-1 1H73a1 1 0 01-1-1v-3zM0 76a1 1 0 011-1h18a1 1 0 011 1v3a1 1 0 01-1 1H1a1 1 0 01-1-1v-3zm25 0a1 1 0 011-1h18a1 1 0 011 1v3a1 1 0 01-1 1H26a1 1 0 01-1-1v-3zm22 0a1 1 0 011-1h18a1 1 0 011 1v3a1 1 0 01-1 1H48a1 1 0 01-1-1v-3zm25 0a1 1 0 011-1h18a1 1 0 011 1v3a1 1 0 01-1 1H73a1 1 0 01-1-1v-3zm0-45a1 1 0 011-1h18a1 1 0 011 1v3a1 1 0 01-1 1H73a1 1 0 01-1-1v-3zm0-30a1 1 0 011-1h18a1 1 0 011 1v3a1 1 0 01-1 1H73a1 1 0 01-1-1V1zM0 61a1 1 0 011-1h18a1 1 0 011 1v3a1 1 0 01-1 1H1a1 1 0 01-1-1v-3zm25 0a1 1 0 011-1h18a1 1 0 011 1v3a1 1 0 01-1 1H26a1 1 0 01-1-1v-3zm0-15a1 1 0 011-1h18a1 1 0 011 1v3a1 1 0 01-1 1H26a1 1 0 01-1-1v-3zm0-15a1 1 0 011-1h18a1 1 0 011 1v3a1 1 0 01-1 1H26a1 1 0 01-1-1v-3zm22 30a1 1 0 011-1h18a1 1 0 011 1v3a1 1 0 01-1 1H48a1 1 0 01-1-1v-3zm0-15a1 1 0 011-1h18a1 1 0 011 1v3a1 1 0 01-1 1H48a1 1 0 01-1-1v-3zm25 15a1 1 0 011-1h18a1 1 0 011 1v3a1 1 0 01-1 1H73a1 1 0 01-1-1v-3zm0-45a1 1 0 011-1h18a1 1 0 011 1v3a1 1 0 01-1 1H73a1 1 0 01-1-1v-3z" fill="#D2D6DC"/>
</svg>
